<mxfile host="app.diagrams.net" agent="Mozilla/5.0 (Windows NT 10.0; Win64; x64) AppleWebKit/537.36 (KHTML, like Gecko) Chrome/141.0.0.0 Safari/537.36 Edg/141.0.0.0" version="28.2.5">
  <diagram name="PÃ¡gina-1" id="IRHMoUYt9Ks3O9NO9F-Q">
    <mxGraphModel dx="974" dy="1186" grid="1" gridSize="10" guides="0" tooltips="1" connect="1" arrows="1" fold="1" page="1" pageScale="1" pageWidth="827" pageHeight="1169" math="0" shadow="0">
      <root>
        <mxCell id="0" />
        <mxCell id="1" parent="0" />
        <mxCell id="yTBQC41Mj1kL9p5l5KH8-46" style="edgeStyle=orthogonalEdgeStyle;rounded=0;orthogonalLoop=1;jettySize=auto;html=1;entryX=0.5;entryY=1;entryDx=0;entryDy=0;" parent="1" edge="1">
          <mxGeometry relative="1" as="geometry">
            <Array as="points">
              <mxPoint x="915" y="850" />
              <mxPoint x="300" y="850" />
            </Array>
            <mxPoint x="300" y="130" as="targetPoint" />
          </mxGeometry>
        </mxCell>
        <mxCell id="n0Cg8OXJ-iFq7vAQ-mr2-110" value="" style="edgeStyle=orthogonalEdgeStyle;rounded=0;orthogonalLoop=1;jettySize=auto;html=1;" edge="1" parent="1" source="n0Cg8OXJ-iFq7vAQ-mr2-1" target="n0Cg8OXJ-iFq7vAQ-mr2-109">
          <mxGeometry relative="1" as="geometry" />
        </mxCell>
        <mxCell id="n0Cg8OXJ-iFq7vAQ-mr2-1" value="i" style="ellipse;whiteSpace=wrap;html=1;" vertex="1" parent="1">
          <mxGeometry x="120" y="50" width="120" height="80" as="geometry" />
        </mxCell>
        <mxCell id="n0Cg8OXJ-iFq7vAQ-mr2-112" value="" style="edgeStyle=orthogonalEdgeStyle;rounded=0;orthogonalLoop=1;jettySize=auto;html=1;" edge="1" parent="1" source="n0Cg8OXJ-iFq7vAQ-mr2-109" target="n0Cg8OXJ-iFq7vAQ-mr2-111">
          <mxGeometry relative="1" as="geometry" />
        </mxCell>
        <mxCell id="n0Cg8OXJ-iFq7vAQ-mr2-109" value="cont= 0&lt;div&gt;soma = 0&lt;/div&gt;" style="whiteSpace=wrap;html=1;" vertex="1" parent="1">
          <mxGeometry x="320" y="60" width="120" height="60" as="geometry" />
        </mxCell>
        <mxCell id="n0Cg8OXJ-iFq7vAQ-mr2-114" value="" style="edgeStyle=orthogonalEdgeStyle;rounded=0;orthogonalLoop=1;jettySize=auto;html=1;" edge="1" parent="1" source="n0Cg8OXJ-iFq7vAQ-mr2-111" target="n0Cg8OXJ-iFq7vAQ-mr2-113">
          <mxGeometry relative="1" as="geometry" />
        </mxCell>
        <mxCell id="n0Cg8OXJ-iFq7vAQ-mr2-111" value="ler n" style="shape=parallelogram;perimeter=parallelogramPerimeter;whiteSpace=wrap;html=1;fixedSize=1;" vertex="1" parent="1">
          <mxGeometry x="520" y="60" width="120" height="60" as="geometry" />
        </mxCell>
        <mxCell id="n0Cg8OXJ-iFq7vAQ-mr2-116" value="" style="edgeStyle=orthogonalEdgeStyle;rounded=0;orthogonalLoop=1;jettySize=auto;html=1;" edge="1" parent="1" source="n0Cg8OXJ-iFq7vAQ-mr2-113" target="n0Cg8OXJ-iFq7vAQ-mr2-115">
          <mxGeometry relative="1" as="geometry" />
        </mxCell>
        <mxCell id="n0Cg8OXJ-iFq7vAQ-mr2-113" value="soma = soma+n&lt;div&gt;cont = cont+1&lt;/div&gt;" style="whiteSpace=wrap;html=1;" vertex="1" parent="1">
          <mxGeometry x="520" y="200" width="120" height="60" as="geometry" />
        </mxCell>
        <mxCell id="n0Cg8OXJ-iFq7vAQ-mr2-117" value="n" style="edgeStyle=orthogonalEdgeStyle;rounded=0;orthogonalLoop=1;jettySize=auto;html=1;entryX=1;entryY=0.75;entryDx=0;entryDy=0;" edge="1" parent="1" source="n0Cg8OXJ-iFq7vAQ-mr2-115" target="n0Cg8OXJ-iFq7vAQ-mr2-111">
          <mxGeometry relative="1" as="geometry">
            <Array as="points">
              <mxPoint x="680" y="370" />
              <mxPoint x="680" y="102" />
            </Array>
          </mxGeometry>
        </mxCell>
        <mxCell id="n0Cg8OXJ-iFq7vAQ-mr2-120" value="" style="edgeStyle=orthogonalEdgeStyle;rounded=0;orthogonalLoop=1;jettySize=auto;html=1;" edge="1" parent="1" source="n0Cg8OXJ-iFq7vAQ-mr2-115" target="n0Cg8OXJ-iFq7vAQ-mr2-118">
          <mxGeometry relative="1" as="geometry" />
        </mxCell>
        <mxCell id="n0Cg8OXJ-iFq7vAQ-mr2-115" value="soma &amp;gt; 1000" style="rhombus;whiteSpace=wrap;html=1;" vertex="1" parent="1">
          <mxGeometry x="540" y="330" width="80" height="80" as="geometry" />
        </mxCell>
        <mxCell id="n0Cg8OXJ-iFq7vAQ-mr2-118" value="&quot;adicionou&quot;, cont,&quot; numeros e a media deu &quot; soma/cont" style="shape=parallelogram;perimeter=parallelogramPerimeter;whiteSpace=wrap;html=1;fixedSize=1;" vertex="1" parent="1">
          <mxGeometry x="500" y="500" width="160" height="90" as="geometry" />
        </mxCell>
      </root>
    </mxGraphModel>
  </diagram>
</mxfile>
